# xmcd
#
# Track frame offsets:
#	150
#	12428
#	21116
#	34880
#	52022
#
# Disc length: 923 seconds
#
# Revision: 0
# Processed by: cddbd v1.4PL0 Copyright (c) Steve Scherf et al.
# Submitted via: dBpowerAMP V4.0
#
DISCID=3a039905
DTITLE=Naysayer - Pure Beauty
DYEAR=2003
DGENRE=Country
TTITLE0=Waitin' And Datin'
TTITLE1=My Liver Needs a Lawyer
TTITLE2=Things Have Gone to Pieces
TTITLE3=Frank And Terri Ann
TTITLE4=Pure Beauty
EXTD=
EXTT0=
EXTT1=
EXTT2=
EXTT3=
EXTT4=
PLAYORDER=
